<?xml version="1.0" encoding="utf-8"?>
<!-- Generator: Adobe Illustrator 19.0.0, SVG Export Plug-In . SVG Version: 6.00 Build 0)  -->
<svg version="1.1" id="Layer_1" xmlns="http://www.w3.org/2000/svg" xmlns:xlink="http://www.w3.org/1999/xlink" x="0px" y="0px"
	 viewBox="-419 191 286.5 60" style="enable-background:new -419 191 286.5 60;" xml:space="preserve">
<style type="text/css">
	.st0{fill-opacity:0;}
	.st1{fill:#36218E;}
	.st2{fill-rule:evenodd;clip-rule:evenodd;fill:#FEBD41;}
</style>
<rect id="XMLID_33_" x="-418.3" y="191" class="st0" width="319.7" height="60"/>
<path class="st1" d="M-354.5,235.3h-14v-24.2h14v4.8h-8.7v4.8h8.3v4.8h-8.3v4.9h8.7V235.3z"/>
<path class="st1" d="M-339.8,235.3h-4.6l-9.8-24.2h5.8l5,13.6l1.3,3.8l1.3-3.8l5-13.6h5.8L-339.8,235.3z"/>
<path class="st1" d="M-312.8,235.3h-14v-24.2h14v4.8h-8.7v4.8h8.3v4.8h-8.3v4.9h8.7V235.3z"/>
<path class="st1" d="M-297.9,235.3l-8.3-15.1v15.1h-5.3v-24.2h5.3l8.3,15.1v-15.1h5.3v24.2H-297.9z"/>
<path class="st1" d="M-286.2,223.3c0,4.1,3.2,7.5,7,7.5c2.3,0,5.3-0.7,6.7-4.4h-6.2v-4h11.9v0.8c0,6.9-5.5,12.4-12.4,12.4
	c-6.8,0-12.4-5.6-12.4-12.4s5.6-12.4,12.4-12.4c5.3,0,10.1,3.5,11.8,8.5h-5.9c-1.2-2.6-3.6-3.5-5.9-3.5
	C-283,215.8-286.2,219.2-286.2,223.3z"/>
<path class="st1" d="M-265.4,235.3v-24.2h5.3v24.2H-265.4z"/>
<path class="st1" d="M-245.1,235.3l-8.3-15.1v15.1h-5.3v-24.2h5.3l8.3,15.1v-15.1h5.3v24.2H-245.1z"/>
<path class="st1" d="M-224.5,235.3h-14v-24.2h14v4.8h-8.7v4.8h8.3v4.8h-8.3v4.9h8.7V235.3z"/>
<path class="st1" d="M-208.3,235.3h-14v-24.2h14v4.8h-8.7v4.8h8.3v4.8h-8.3v4.9h8.7V235.3z"/>
<path class="st1" d="M-200.7,235.3h-5.3v-24.2h4h1.3h3.7c3.9,0,7.4,3.2,7.4,7.8c0,4.1-2.5,6.8-5.5,7.5l6.9,8.9h-6.8l-5.8-8.6h0
	V235.3z M-200.7,215.3v7.1h2.8c1.6,0,3.2-1.3,3.2-3.6c0-2.2-1.6-3.6-3.2-3.6H-200.7z"/>
<path class="st1" d="M-188.4,235.3v-24.2h5.3v24.2H-188.4z"/>
<path class="st1" d="M-167.1,235.3l-8.3-15.1v15.1h-5.3v-24.2h5.3l8.3,15.1v-15.1h5.3v24.2H-167.1z"/>
<path class="st1" d="M-155.5,223.3c0,4.1,3.2,7.5,7,7.5c2.3,0,5.3-0.7,6.7-4.4h-6.2v-4h11.9v0.8c0,6.9-5.5,12.4-12.4,12.4
	c-6.8,0-12.4-5.6-12.4-12.4s5.6-12.4,12.4-12.4c5.3,0,10.1,3.5,11.8,8.5h-5.9c-1.2-2.6-3.6-3.5-5.9-3.5
	C-152.3,215.8-155.5,219.2-155.5,223.3z"/>
<path class="st2" d="M-398.8,196c-6.5,0-11.7,5.2-11.7,11.7c0,4.3,2.3,8.1,5.8,10.1c5.1-3.3,11-6.5,17.5-9.2c0-0.3,0-0.6,0-0.9
	C-387.1,201.2-392.4,196-398.8,196z"/>
<path class="st1" d="M-408.1,232.1c0,1.6,1,2.3,2.2,1.7l9.1-5.1c1.2-0.7,2.2-2.5,2.2-4.1v-7.7c0-1.6-1-2.3-2.2-1.7l-9.3,5.3
	c-6.3-4.9-6.9-14.3-1.2-20c7.9-7.9,21.4-3.2,22.7,7.8l-5.4,3c-1.2,0.7-2.2,2.5-2.2,4.1v7.7c0,1.6,1,2.3,2.2,1.7l9.1-5.1
	c1.2-0.7,2.2-2.5,2.2-4.1v-7.7c0-1.4-0.8-2.2-1.8-1.8c-3-13.6-20-18.6-29.9-8.7c-7.9,7.9-6.6,20.8,2.4,27.1V232.1z"/>
<path class="st1" d="M-382.3,223.7l-7.7,4.4c-1.6,0.9-2.9,3-2.9,4.6v7.7c0,1.6,1.3,2.2,2.9,1.3l7.7-4.4c1.6-0.9,2.9-3,2.9-4.6V225
	C-379.4,223.4-380.7,222.8-382.3,223.7z"/>
<path class="st1" d="M-397.6,231.5l-7.7,4.3c-1.6,0.9-2.9,2.9-2.9,4.5v7.7c0,1.6,1.3,2.2,2.9,1.3l7.7-4.3c1.6-0.9,2.9-2.9,2.9-4.5
	v-7.7C-394.7,231.2-396,230.6-397.6,231.5z"/>
</svg>
