<?xml version="1.0" encoding="utf-8"?>
<!-- Generator: Adobe Illustrator 19.0.0, SVG Export Plug-In . SVG Version: 6.00 Build 0)  -->
<svg version="1.1" id="Layer_1" xmlns="http://www.w3.org/2000/svg" xmlns:xlink="http://www.w3.org/1999/xlink" x="0px" y="0px"
	 viewBox="132 322 150 150" style="enable-background:new 132 322 150 150;" xml:space="preserve">
<style type="text/css">
	.st0{opacity:0;}
	.st1{fill:#36218E;}
</style>
<rect x="132" y="322" class="st0" width="150" height="150"/>
<g>
	<g>
		<path class="st1" d="M257.8,435.4h-19.6v-19.2c3.8-4.3,6-9.8,6-15.8c0-13.3-11.1-24.2-24.6-24.2c-13.6,0-24.6,10.9-24.6,24.2
			c0,6,2.3,11.6,6,15.8v19.2h-44.8v-87.2h101.6L257.8,435.4L257.8,435.4L257.8,435.4z M219.6,437.9l-8.4,6.4v-21.2
			c2.6,0.9,5.5,1.4,8.4,1.4c2.9,0,5.8-0.5,8.4-1.4v21.2L219.6,437.9L219.6,437.9z M219.6,414.4c-8,0-14.5-6.3-14.5-14
			s6.5-14,14.5-14s14.5,6.3,14.5,14S227.6,414.4,219.6,414.4z M262.9,338H151.1c-2.8,0-5.1,2.3-5.1,5.1v97.4c0,2.8,2.3,5.1,5.1,5.1
			H201v9.5c0,4.1,4.7,6.4,8,3.9l10.6-8.2l10.6,8.2c3.3,2.5,8,0.2,8-3.9v-9.5h24.7c2.8,0,5.1-2.3,5.1-5.1v-97.4
			C268,340.3,265.7,338,262.9,338L262.9,338z"/>
		<path class="st1" d="M180.9,371.3h52.2c2.8,0,5.1-2.3,5.1-5.1s-2.3-5.1-5.1-5.1h-52.2c-2.8,0-5.1,2.3-5.1,5.1
			C175.8,369,178.1,371.3,180.9,371.3L180.9,371.3z"/>
	</g>
</g>
</svg>
