<svg height="512pt" viewBox="-51 0 512 512" width="512pt" xmlns="http://www.w3.org/2000/svg"><path d="m36.59375 496.496094c0 8.5625 6.9375 15.503906 15.5 15.503906h98.894531v-113.886719c0-8.5625 6.941407-15.503906 15.503907-15.503906h77.988281c8.5625 0 15.5 6.941406 15.5 15.503906v113.886719h98.898437c8.558594 0 15.5-6.941406 15.5-15.503906v-153.902344h-337.785156zm0 0"/><path d="m181.996094 413.613281h46.980468v98.386719h-46.980468zm0 0"/><path d="m282.625 268.640625 4.097656 42.945313h124.25l-13.957031-42.945313zm0 0"/><path d="m386.9375 237.632812-8.617188-26.511718c-2.074218-6.390625-8.027343-10.714844-14.742187-10.714844h-87.464844l3.550781 37.226562zm0 0"/><path d="m128.34375 268.640625h-114.386719l-13.957031 42.945313h124.246094zm0 0"/><path d="m134.855469 200.40625h-87.464844c-6.714844 0-12.667969 4.324219-14.742187 10.710938l-8.617188 26.515624h107.273438zm0 0"/><path d="m248.519531 237.632812-3.550781-37.226562h-78.964844l-3.554687 37.226562zm0 0"/><path d="m251.476562 268.640625h-91.984374l-4.097657 42.945313h100.179688zm0 0"/><path d="m75.691406 31.003906h33.972656c2.453126 15.222656 8.457032 29.265625 17.136719 41.261719l-24.054687 24.050781c-6.054688 6.054688-6.054688 15.871094 0 21.925782 3.027344 3.027343 6.996094 4.542968 10.960937 4.542968 3.96875 0 7.9375-1.515625 10.960938-4.542968l24.054687-24.054688c11.992188 8.679688 26.039063 14.683594 41.257813 17.136719v33.972656c0 8.558594 6.941406 15.5 15.503906 15.5s15.5-6.941406 15.5-15.5v-33.972656c15.222656-2.453125 29.265625-8.457031 41.261719-17.136719l24.050781 24.054688c3.027344 3.027343 6.996094 4.542968 10.964844 4.542968 3.964843 0 7.933593-1.515625 10.960937-4.542968 6.054688-6.054688 6.054688-15.871094 0-21.925782l-24.050781-24.050781c8.675781-11.996094 14.679687-26.039063 17.132813-41.261719h33.972656c8.5625 0 15.503906-6.9375 15.503906-15.5s-6.941406-15.503906-15.503906-15.503906h-259.585938c-8.5625 0-15.503906 6.941406-15.503906 15.503906s6.941406 15.5 15.503906 15.5zm0 0"/></svg>