<?xml version="1.0" encoding="utf-8"?>
<!-- Generator: Adobe Illustrator 19.0.0, SVG Export Plug-In . SVG Version: 6.00 Build 0)  -->
<svg version="1.1" id="Layer_1" xmlns="http://www.w3.org/2000/svg" xmlns:xlink="http://www.w3.org/1999/xlink" x="0px" y="0px"
	 viewBox="132 322 150 150" style="enable-background:new 132 322 150 150;" xml:space="preserve">
<style type="text/css">
	.st0{fill:#36218E;}
	.st1{opacity:0;}
</style>
<g id="surface1">
	<path class="st0" d="M207.9,368.6c-14.3,0-25.9,11.6-25.9,25.9c0,14.3,11.6,25.9,25.9,25.9c14.3,0,25.9-11.6,25.9-25.9
		C233.8,380.2,222.1,368.6,207.9,368.6z M223.2,389.6l-18.6,18.6c-0.8,0.8-1.8,1.2-2.8,1.2c-1,0-2-0.4-2.8-1.2l-7.1-7.1
		c-1.6-1.6-1.6-4.1,0-5.6c1.6-1.6,4.1-1.6,5.6,0l4.3,4.3l15.7-15.7c1.6-1.6,4.1-1.6,5.6,0C224.8,385.5,224.8,388.1,223.2,389.6z"/>
	<path class="st0" d="M265.6,363.4l0-0.1c-0.1-1.3-0.1-2.7-0.1-4.2c-0.1-7.5-6.1-13.7-13.6-14.1c-15.6-0.9-27.7-6-38-16l-0.1-0.1
		c-3.4-3.1-8.5-3.1-11.8,0l-0.1,0.1c-10.3,10.1-22.4,15.2-38,16c-7.5,0.4-13.5,6.6-13.6,14.1c0,1.5-0.1,2.9-0.1,4.2l0,0.2
		c-0.3,15.9-0.7,35.8,6,53.8c3.6,9.9,9.2,18.5,16.4,25.6c8.3,8.1,19.1,14.4,32.1,19c0.4,0.1,0.9,0.3,1.3,0.4
		c0.6,0.1,1.3,0.2,1.9,0.2c0.6,0,1.3-0.1,1.9-0.2c0.5-0.1,0.9-0.2,1.3-0.4c13.1-4.6,23.9-11,32.1-19c7.2-7.1,12.8-15.7,16.4-25.6
		C266.3,399.3,265.9,379.4,265.6,363.4z M207.9,428.4c-18.7,0-33.9-15.2-33.9-33.9c0-18.7,15.2-33.9,33.9-33.9
		c18.7,0,33.9,15.2,33.9,33.9C241.7,413.2,226.5,428.4,207.9,428.4z"/>
</g>
<rect x="132" y="322" class="st1" width="150" height="150"/>
</svg>
