<?xml version="1.0" encoding="utf-8"?>
<!-- Generator: Adobe Illustrator 19.0.0, SVG Export Plug-In . SVG Version: 6.00 Build 0)  -->
<svg version="1.1" id="Layer_1" xmlns="http://www.w3.org/2000/svg" xmlns:xlink="http://www.w3.org/1999/xlink" x="0px" y="0px"
	 viewBox="132 322 150 150" style="enable-background:new 132 322 150 150;" xml:space="preserve">
<style type="text/css">
	.st0{opacity:0;}
	.st1{fill:#36218E;}
</style>
<rect x="132" y="322" class="st0" width="150" height="150"/>
<g>
	<g>
		<path class="st1" d="M267.8,442.5h-23.5v-23c4.5-5.1,7.2-11.7,7.2-18.9c0-16-13.2-28.9-29.5-28.9s-29.5,13-29.5,28.9
			c0,7.2,2.7,13.9,7.2,18.9v23h-53.6V338.2h121.6L267.8,442.5L267.8,442.5L267.8,442.5z M222,445.5l-10,7.7v-25.4
			c3.1,1.1,6.5,1.7,10,1.7c3.5,0,6.9-0.6,10-1.7v25.4L222,445.5L222,445.5z M222,417.4c-9.6,0-17.3-7.5-17.3-16.8
			s7.8-16.8,17.3-16.8c9.6,0,17.3,7.5,17.3,16.8S231.6,417.4,222,417.4z M273.9,326H140.1c-3.4,0-6.1,2.7-6.1,6.1v116.5
			c0,3.4,2.7,6.1,6.1,6.1h59.7V466c0,4.9,5.7,7.7,9.6,4.7L222,461l12.7,9.8c3.9,3,9.6,0.2,9.6-4.7v-11.4h29.6c3.4,0,6.1-2.7,6.1-6.1
			V332.1C280,328.7,277.3,326,273.9,326L273.9,326z"/>
		<path class="st1" d="M175.7,365.9h62.5c3.4,0,6.1-2.7,6.1-6.1c0-3.4-2.7-6.1-6.1-6.1h-62.5c-3.4,0-6.1,2.7-6.1,6.1
			C169.7,363.2,172.4,365.9,175.7,365.9L175.7,365.9z"/>
	</g>
</g>
</svg>
