<?xml version="1.0" encoding="utf-8"?>
<!-- Generator: Adobe Illustrator 19.0.0, SVG Export Plug-In . SVG Version: 6.00 Build 0)  -->
<svg version="1.1" id="Layer_1" xmlns="http://www.w3.org/2000/svg" xmlns:xlink="http://www.w3.org/1999/xlink" x="0px" y="0px"
	 viewBox="132 322 150 150" style="enable-background:new 132 322 150 150;" xml:space="preserve">
<style type="text/css">
	.st0{opacity:0;}
	.st1{fill:#36218E;}
</style>
<rect x="132" y="322" class="st0" width="150" height="150"/>
<g>
	<path class="st1" d="M153.4,450.9c0,2.8,2.3,5.1,5.1,5.1h32.6v-37.5c0-2.8,2.3-5.1,5.1-5.1h25.7c2.8,0,5.1,2.3,5.1,5.1V456h32.6
		c2.8,0,5.1-2.3,5.1-5.1v-50.7H153.4V450.9z"/>
	<path class="st1" d="M201.3,423.6h15.5V456h-15.5V423.6z"/>
	<path class="st1" d="M234.4,375.9l1.3,14.1h40.9l-4.6-14.1H234.4z"/>
	<path class="st1" d="M268.8,365.7l-2.8-8.7c-0.7-2.1-2.6-3.5-4.9-3.5h-28.8l1.2,12.3H268.8z"/>
	<path class="st1" d="M183.6,375.9H146l-4.6,14.1h40.9L183.6,375.9z"/>
	<path class="st1" d="M185.8,353.4H157c-2.2,0-4.2,1.4-4.9,3.5l-2.8,8.7h35.3L185.8,353.4z"/>
	<path class="st1" d="M223.2,365.7l-1.2-12.3h-26l-1.2,12.3H223.2z"/>
	<path class="st1" d="M224.2,375.9h-30.3l-1.3,14.1h33L224.2,375.9z"/>
</g>
<path class="st1" d="M196.6,329.2h3.9c0.3,1.7,1,3.3,2,4.7l-2.7,2.7c-0.7,0.7-0.7,1.8,0,2.5c0.3,0.3,0.8,0.5,1.3,0.5
	c0.5,0,0.9-0.2,1.3-0.5l2.7-2.7c1.4,1,3,1.7,4.7,2v3.9c0,1,0.8,1.8,1.8,1.8c1,0,1.8-0.8,1.8-1.8v-3.9c1.7-0.3,3.3-1,4.7-2l2.7,2.7
	c0.3,0.3,0.8,0.5,1.3,0.5c0.5,0,0.9-0.2,1.3-0.5c0.7-0.7,0.7-1.8,0-2.5l-2.7-2.7c1-1.4,1.7-3,2-4.7h3.9c1,0,1.8-0.8,1.8-1.8
	s-0.8-1.8-1.8-1.8h-29.6c-1,0-1.8,0.8-1.8,1.8S195.6,329.2,196.6,329.2z"/>
</svg>
