<?xml version="1.0" encoding="utf-8"?>
<!-- Generator: Adobe Illustrator 19.0.0, SVG Export Plug-In . SVG Version: 6.00 Build 0)  -->
<svg version="1.1" id="Layer_1" xmlns="http://www.w3.org/2000/svg" xmlns:xlink="http://www.w3.org/1999/xlink" x="0px" y="0px"
	 viewBox="132 322 150 150" style="enable-background:new 132 322 150 150;" xml:space="preserve">
<style type="text/css">
	.st0{opacity:0;}
	.st1{fill:#36218E;}
</style>
<rect x="132" y="322" class="st0" width="150" height="150"/>
<g>
	<path class="st1" d="M188,422.5c6.3,0,11.5-5.2,11.5-11.5s-5.2-11.5-11.5-11.5c-6.3,0-11.5,5.2-11.5,11.5S181.7,422.5,188,422.5
		L188,422.5z M188,422.5"/>
	<rect x="176.5" y="353.4" class="st1" width="61.4" height="7.7"/>
	<path class="st1" d="M184.2,429.8v5.7l2.1-1.1c1.1-0.5,2.4-0.5,3.4,0l2.1,1.1v-5.7c-1.2,0.3-2.5,0.4-3.8,0.4
		C186.7,430.1,185.4,430,184.2,429.8L184.2,429.8z M184.2,429.8"/>
	<polygon class="st1" points="230.2,430.1 230.2,458.6 258.7,430.1 	"/>
	<path class="st1" d="M257.1,329.8h-99.8c-2.1,0-3.8,1.7-3.8,3.8V457c0,2.1,1.7,3.8,3.8,3.8h65.3v-34.5c0-2.1,1.7-3.8,3.8-3.8h34.5
		v-88.8C260.9,331.5,259.2,329.8,257.1,329.8z M199.5,426.2v15.5c0,1.3-0.7,2.6-1.8,3.3c-1.1,0.7-2.5,0.8-3.7,0.2l-6-3l-6,3
		c-1.2,0.6-2.6,0.5-3.7-0.2c-1.1-0.7-1.8-1.9-1.8-3.3v-15.5c-4.6-3.5-7.7-9-7.7-15.3c0-10.6,8.6-19.2,19.2-19.2
		c10.6,0,19.2,8.6,19.2,19.2C207.2,417.2,204.2,422.7,199.5,426.2z M241.8,414.8h-23c-2.1,0-3.8-1.7-3.8-3.8s1.7-3.8,3.8-3.8h23
		c2.1,0,3.8,1.7,3.8,3.8S243.9,414.8,241.8,414.8z M241.8,399.4h-23c-2.1,0-3.8-1.7-3.8-3.8c0-2.1,1.7-3.8,3.8-3.8h23
		c2.1,0,3.8,1.7,3.8,3.8C245.6,397.7,243.9,399.4,241.8,399.4z M241.8,384.1h-69.1c-2.1,0-3.8-1.7-3.8-3.8s1.7-3.8,3.8-3.8h69.1
		c2.1,0,3.8,1.7,3.8,3.8S243.9,384.1,241.8,384.1z M245.6,364.9c0,2.1-1.7,3.8-3.8,3.8h-69.1c-2.1,0-3.8-1.7-3.8-3.8v-15.4
		c0-2.1,1.7-3.8,3.8-3.8h69.1c2.1,0,3.8,1.7,3.8,3.8V364.9z"/>
</g>
</svg>
